<svg width="16" height="16" xmlns="http://www.w3.org/2000/svg" class="bi bi-collection" fill="currentColor">

 <g>
  <title>Layer 1</title>
  <path fill="#FFFBE4" id="svg_1" d="m2.5,3.5a0.5,0.5 0 0 1 0,-1l11,0a0.5,0.5 0 0 1 0,1l-11,0zm2,-2a0.5,0.5 0 0 1 0,-1l7,0a0.5,0.5 0 0 1 0,1l-7,0zm-4.5,11.5a1.5,1.5 0 0 0 1.5,1.5l13,0a1.5,1.5 0 0 0 1.5,-1.5l0,-7a1.5,1.5 0 0 0 -1.5,-1.5l-13,0a1.5,1.5 0 0 0 -1.5,1.5l0,7zm1.5,0.5a0.5,0.5 0 0 1 -0.5,-0.5l0,-7a0.5,0.5 0 0 1 0.5,-0.5l13,0a0.5,0.5 0 0 1 0.5,0.5l0,7a0.5,0.5 0 0 1 -0.5,0.5l-13,0z"/>
 </g>
</svg>