<svg width="16" height="16" xmlns="http://www.w3.org/2000/svg" class="bi bi-download" fill="currentColor">

 <g>
  <title>Layer 1</title>
  <path fill="#ffffff" id="svg_1" d="m0.5,9.9a0.5,0.5 0 0 1 0.5,0.5l0,2.5a1,1 0 0 0 1,1l12,0a1,1 0 0 0 1,-1l0,-2.5a0.5,0.5 0 0 1 1,0l0,2.5a2,2 0 0 1 -2,2l-12,0a2,2 0 0 1 -2,-2l0,-2.5a0.5,0.5 0 0 1 0.5,-0.5z"/>
  <path fill="#ffffff" id="svg_2" d="m7.646,11.854a0.5,0.5 0 0 0 0.708,0l3,-3a0.5,0.5 0 0 0 -0.708,-0.708l-2.146,2.147l0,-8.793a0.5,0.5 0 0 0 -1,0l0,8.793l-2.146,-2.147a0.5,0.5 0 1 0 -0.708,0.708l3,3z"/>
 </g>
</svg>