<svg width="16" height="16" xmlns="http://www.w3.org/2000/svg" class="bi bi-funnel" fill="currentColor">

 <g>
  <title>Layer 1</title>
  <path fill="#ffffff" id="svg_1" d="m1.5,1.5a0.5,0.5 0 0 1 0.5,-0.5l12,0a0.5,0.5 0 0 1 0.5,0.5l0,2a0.5,0.5 0 0 1 -0.128,0.334l-4.372,4.858l0,4.808a0.5,0.5 0 0 1 -0.342,0.474l-3,1a0.5,0.5 0 0 1 -0.658,-0.474l0,-5.808l-4.372,-4.858a0.5,0.5 0 0 1 -0.128,-0.334l0,-2zm1,0.5l0,1.308l4.372,4.858a0.5,0.5 0 0 1 0.128,0.334l0,5.306l2,-0.666l0,-4.64a0.5,0.5 0 0 1 0.128,-0.334l4.372,-4.858l0,-1.308l-11,0z"/>
 </g>
</svg>