<svg width="16" height="16" xmlns="http://www.w3.org/2000/svg" class="bi bi-pencil" fill="currentColor">

 <g>
  <title>Layer 1</title>
  <path fill="#FFFBE4" id="svg_1" d="m12.146,0.146a0.5,0.5 0 0 1 0.708,0l3,3a0.5,0.5 0 0 1 0,0.708l-10,10a0.5,0.5 0 0 1 -0.168,0.11l-5,2a0.5,0.5 0 0 1 -0.65,-0.65l2,-5a0.5,0.5 0 0 1 0.11,-0.168l10,-10zm-0.939,2.354l2.293,2.293l1.293,-1.293l-2.293,-2.293l-1.293,1.293zm1.586,3l-2.293,-2.293l-6.5,6.5l0,0.293l0.5,0a0.5,0.5 0 0 1 0.5,0.5l0,0.5l0.5,0a0.5,0.5 0 0 1 0.5,0.5l0,0.5l0.293,0l6.5,-6.5zm-9.761,5.175l-0.106,0.106l-1.528,3.821l3.821,-1.528l0.106,-0.106a0.5,0.5 0 0 1 -0.325,-0.468l0,-0.5l-0.5,0a0.5,0.5 0 0 1 -0.5,-0.5l0,-0.5l-0.5,0a0.5,0.5 0 0 1 -0.468,-0.325z"/>
 </g>
</svg>