<svg version="1.1" id="Layer_1" xmlns="http://www.w3.org/2000/svg" xmlns:xlink="http://www.w3.org/1999/xlink" x="0px" y="0px" viewBox="0 0 512 512" style="enable-background:new 0 0 512 512;" xml:space="preserve" fill="#ffd000">
	<path d="M402.556,14.887H21.184C9.503,14.887,0,24.302,0,35.875v398.021c0,11.573,9.503,20.988,21.184,20.988h8.688v28.689c0,4.908,2.729,9.364,7.122,11.631c1.878,0.969,3.992,1.48,6.112,1.48c2.657,0,5.223-0.779,7.412-2.249l17.369-11.636l19.797,12.309c2.109,1.311,4.542,2.004,7.035,2.004c2.199,0,4.383-0.55,6.306-1.586c4.272-2.294,6.927-6.71,6.927-11.524v-29.118h288.165c7.907,0,14.341-6.39,14.341-14.244V249.676c2.805-2.294,4.599-5.778,4.599-9.676V27.387C415.056,20.494,409.448,14.887,402.556,14.887z M92.951,480.722l-21.256-13.216c-1.214-0.755-2.587-1.131-3.96-1.131c-1.457,0-2.913,0.424-4.174,1.269l-18.69,12.521v-25.279h48.08V480.722z M342.039,439.885H67.09V372c0-4.143-3.357-7.5-7.5-7.5s-7.5,3.357-7.5,7.5v67.885H21.184c-3.409,0-6.184-2.687-6.184-5.988V35.875c0-3.302,2.774-5.988,6.184-5.988H52.09V343c0,4.143,3.357,7.5,7.5,7.5s7.5-3.357,7.5-7.5V29.887h274.949V439.885z M395.457,439.885h-10.948V295c0-4.143-3.357-7.5-7.5-7.5s-7.5,3.357-7.5,7.5v144.885h-12.47V252.5h12.47V263c0,4.143,3.357,7.5,7.5,7.5s7.5-3.357,7.5-7.5v-10.5h10.948V439.885zM400.056,237.5h-43.017v-55h43.017V237.5z M400.056,167.5h-43.017v-58.821h43.017V167.5z M400.056,93.679h-43.017V29.887h43.017V93.679z"/>
	<path d="M264.721,121.777c-10.462,0-20.349,3.677-28.161,10.417c-7.808-6.739-17.695-10.417-28.159-10.417c-10.463,0-20.351,3.678-28.161,10.417c-7.808-6.738-17.696-10.417-28.16-10.417c-23.645,0-42.88,19.009-42.88,42.374c0,21.91,17.221,40.224,38.99,42.189v63.86c0,4.143,3.357,7.5,7.5,7.5h105.42c4.143,0,7.5-3.357,7.5-7.5v-63.86c21.767-1.964,38.99-20.278,38.99-42.189C307.6,140.786,288.364,121.777,264.721,121.777z M265.238,191.511c-6.412,0.108-11.629,5.389-11.629,11.771v59.42h-20.621v-34.922c0-4.143-3.357-7.5-7.5-7.5s-7.5,3.357-7.5,7.5v34.922h-19.178v-34.922c0-4.143-3.357-7.5-7.5-7.5s-7.5,3.357-7.5,7.5v34.922h-20.621v-59.42c0-6.382-5.216-11.662-11.623-11.771c-15.09-0.266-27.367-12.539-27.367-27.359c0-15.094,12.507-27.374,27.88-27.374c7.495,0,14.53,2.882,19.802,8.107c2.231,2.219,5.2,3.44,8.358,3.44c3.155,0,6.123-1.221,8.352-3.434c5.278-5.231,12.313-8.113,19.81-8.113c7.495,0,14.529,2.882,19.801,8.107c2.231,2.219,5.2,3.44,8.358,3.44s6.127-1.222,8.352-3.434c5.278-5.231,12.313-8.113,19.81-8.113c15.372,0,27.879,12.28,27.879,27.374C292.6,178.972,280.323,191.245,265.238,191.511z"/>
</svg>
