<svg xmlns="http://www.w3.org/2000/svg" width="16" height="16" class="bi bi-trash" fill="currentColor" viewBox="0 0 16 16">
  <path fill="#ffffff" id="svg_1" d="m5.5,5.5a0.5,0.5 0 0 1 0.5,0.5l0,6a0.5,0.5 0 0 1 -1,0l0,-6a0.5,0.5 0 0 1 0.5,-0.5zm2.5,0a0.5,0.5 0 0 1 0.5,0.5l0,6a0.5,0.5 0 0 1 -1,0l0,-6a0.5,0.5 0 0 1 0.5,-0.5zm3,0.5a0.5,0.5 0 0 0 -1,0l0,6a0.5,0.5 0 0 0 1,0l0,-6z"/>
  <path fill="#ffffff" id="svg_2" d="m14.5,3a1,1 0 0 1 -1,1l-0.5,0l0,9a2,2 0 0 1 -2,2l-6,0a2,2 0 0 1 -2,-2l0,-9l-0.5,0a1,1 0 0 1 -1,-1l0,-1a1,1 0 0 1 1,-1l3.5,0a1,1 0 0 1 1,-1l2,0a1,1 0 0 1 1,1l3.5,0a1,1 0 0 1 1,1l0,1zm-10.382,1l-0.118,0.059l0,8.941a1,1 0 0 0 1,1l6,0a1,1 0 0 0 1,-1l0,-8.941l-0.118,-0.059l-7.764,0zm-1.618,-1l11,0l0,-1l-11,0l0,1z"/>
</svg>